<?xml version="1.0" encoding="UTF-8" ?>
<!DOCTYPE svg PUBLIC "-//W3C//DTD SVG 1.1//EN" "http://www.w3.org/Graphics/SVG/1.1/DTD/svg11.dtd">
<svg width="500pt" height="500pt" viewBox="0 0 500 500" version="1.1" xmlns="http://www.w3.org/2000/svg">
<g id="#f5f4f2ff">
</g>
<g id="#1a1a62ff">
<path fill="#1a1a62" opacity="1.00" d=" M 244.85 115.67 C 245.42 111.62 248.06 108.14 250.01 104.62 C 253.64 111.20 257.18 117.92 259.78 124.98 C 258.23 124.59 256.66 124.31 255.10 124.02 C 254.29 126.46 254.05 129.04 254.31 131.60 C 255.02 138.74 252.60 145.98 254.76 153.00 C 256.64 151.85 258.51 150.68 260.40 149.55 C 257.40 156.98 253.90 164.23 250.00 171.22 C 247.78 167.03 244.88 162.91 243.89 158.26 C 244.75 152.81 242.85 147.47 242.85 142.03 C 242.74 136.08 242.38 129.99 244.16 124.23 C 245.07 121.46 245.27 118.54 244.85 115.67 Z" />
</g>
<g id="#05bd64ff">
<path fill="#05bd64" opacity="1.00" d=" M 134.50 110.67 C 141.80 108.64 150.89 113.11 151.92 121.05 C 153.84 129.95 144.62 138.13 135.98 136.31 C 127.17 135.45 122.53 124.11 126.85 116.83 C 128.73 114.13 131.36 111.79 134.50 110.67 M 139.94 113.90 C 142.07 116.79 144.57 119.53 147.93 121.01 C 148.38 116.73 144.39 111.99 139.94 113.90 Z" />
</g>
<g id="#8ffeddff">
<path fill="#8ffedd" opacity="1.00" d=" M 139.94 113.90 C 144.39 111.99 148.38 116.73 147.93 121.01 C 144.57 119.53 142.07 116.79 139.94 113.90 Z" />
</g>
<g id="#93dfe8ff">
<path fill="#93dfe8" opacity="1.00" d=" M 99.42 116.52 C 103.92 115.10 110.06 116.04 112.36 120.65 C 114.55 124.28 114.24 129.20 111.41 132.41 C 108.35 136.17 102.86 137.05 98.42 135.55 C 94.69 132.90 92.06 127.95 93.38 123.34 C 94.14 120.27 96.52 117.70 99.42 116.52 Z" />
</g>
<g id="#0f0f3bff">
<path fill="#0f0f3b" opacity="1.00" d=" M 244.85 115.67 C 245.27 118.54 245.07 121.46 244.16 124.23 C 242.38 129.99 242.74 136.08 242.85 142.03 C 242.85 147.47 244.75 152.81 243.89 158.26 C 241.58 155.35 240.73 151.49 238.24 148.76 C 230.85 144.63 222.59 142.25 215.25 138.00 C 222.56 133.72 230.74 131.18 238.14 127.09 C 241.13 123.81 241.94 119.07 244.85 115.67 Z" />
</g>
<g id="#22207fff">
<path fill="#22207f" opacity="1.00" d=" M 255.10 124.02 C 256.66 124.31 258.23 124.59 259.78 124.98 C 262.75 128.04 266.79 129.52 270.43 131.59 C 268.00 132.28 265.42 132.97 263.45 134.65 C 262.73 139.20 266.34 142.83 270.08 144.74 C 266.82 146.27 263.49 147.69 260.40 149.55 C 258.51 150.68 256.64 151.85 254.76 153.00 C 252.60 145.98 255.02 138.74 254.31 131.60 C 254.05 129.04 254.29 126.46 255.10 124.02 Z" />
</g>
<g id="#2c2b9cff">
<path fill="#2c2b9c" opacity="1.00" d=" M 270.43 131.59 C 275.40 132.99 279.96 135.64 284.53 138.00 C 279.90 140.62 274.99 142.70 270.08 144.74 C 266.34 142.83 262.73 139.20 263.45 134.65 C 265.42 132.97 268.00 132.28 270.43 131.59 Z" />
</g>
<g id="#042158ff">
<path fill="#042158" opacity="1.00" d=" M 166.87 142.89 C 168.46 138.79 172.52 135.79 176.96 135.80 C 183.31 135.54 189.66 135.69 196.01 135.72 C 202.06 135.66 208.06 138.47 211.74 143.30 C 215.82 148.25 216.66 154.80 218.19 160.81 C 220.03 168.06 221.54 175.39 223.43 182.63 C 278.61 182.81 333.81 182.68 389.00 182.69 C 394.26 182.85 400.23 181.88 404.76 185.21 C 409.17 188.44 410.38 194.62 408.64 199.63 C 401.34 223.31 394.04 246.99 386.68 270.66 C 384.28 278.83 379.31 286.53 371.85 290.91 C 365.96 294.64 358.91 296.07 352.01 296.01 C 313.65 296.00 275.28 296.00 236.92 296.01 C 232.46 295.71 227.56 298.34 226.79 303.05 C 225.37 308.32 229.71 313.77 235.07 313.98 C 237.86 314.66 239.89 312.44 241.94 310.98 C 250.46 304.19 263.07 303.44 272.64 308.42 C 276.26 309.95 278.70 314.15 282.94 314.00 C 298.31 313.99 313.68 313.99 329.05 314.00 C 331.78 314.29 333.61 312.06 335.63 310.65 C 342.19 305.52 351.10 304.28 359.11 305.91 C 371.52 308.64 381.34 320.22 382.01 332.91 C 383.13 344.91 375.79 356.93 364.86 361.83 C 359.34 364.68 352.94 364.19 346.94 363.92 C 338.81 362.85 331.63 357.53 327.32 350.66 C 324.86 346.96 323.90 342.56 322.77 338.34 C 311.56 338.20 300.34 338.30 289.13 338.30 C 287.69 342.65 286.84 347.32 284.13 351.13 C 279.96 357.47 273.34 362.25 265.87 363.77 C 261.32 364.24 256.69 364.27 252.16 363.71 C 248.22 363.17 245.05 360.18 241.08 359.88 C 213.38 360.14 185.67 359.87 157.97 360.03 C 155.05 359.88 151.32 360.30 149.36 357.61 C 148.22 354.90 148.05 350.51 151.37 349.29 C 155.51 348.43 159.80 348.97 164.00 348.87 C 186.94 348.82 209.87 348.97 232.80 348.80 C 231.50 345.15 230.42 341.44 229.34 337.72 C 219.48 335.58 210.39 329.23 205.88 320.09 C 201.20 311.27 201.05 300.31 205.18 291.26 C 208.37 284.25 214.03 278.58 220.70 274.82 C 214.29 247.23 207.44 219.74 200.85 192.19 C 198.17 181.44 195.84 170.60 192.91 159.92 C 186.40 159.04 179.58 160.84 173.27 158.75 C 167.35 156.25 164.08 148.83 166.87 142.89 M 177.37 144.49 C 174.18 144.75 174.14 150.27 177.37 150.49 C 183.84 151.24 190.41 150.09 196.85 151.23 C 199.43 151.68 200.65 154.36 201.36 156.60 C 210.87 195.75 220.14 234.98 229.75 274.11 C 230.05 276.28 231.00 279.33 228.79 280.81 C 225.43 283.15 221.47 284.59 218.48 287.46 C 208.61 296.26 208.50 313.75 218.57 322.42 C 221.94 325.37 225.97 328.90 230.81 327.96 C 231.15 326.12 231.47 324.29 231.74 322.45 C 228.98 321.25 226.01 320.28 223.72 318.25 C 216.79 312.24 215.75 300.74 221.71 293.71 C 225.14 290.13 229.81 287.16 234.94 287.30 C 273.96 287.39 312.98 287.28 352.00 287.36 C 359.89 287.46 368.22 284.52 373.19 278.16 C 375.69 275.30 377.12 271.72 378.18 268.13 C 385.31 244.94 392.56 221.80 399.75 198.63 C 400.35 196.49 400.92 193.61 398.77 192.10 C 394.56 191.37 390.25 191.72 386.00 191.66 C 333.67 191.70 281.33 191.64 229.00 191.68 C 225.48 191.64 221.93 192.00 218.45 191.42 C 216.54 190.71 215.87 188.57 215.33 186.81 C 212.52 175.54 210.26 164.11 207.06 152.94 C 205.78 148.23 201.56 144.67 196.65 144.47 C 190.24 144.19 183.77 144.00 177.37 144.49 M 256.35 314.45 C 250.47 315.32 244.83 318.55 241.71 323.71 C 238.52 328.36 237.80 334.35 239.04 339.78 C 240.60 347.75 247.56 354.19 255.53 355.45 C 261.61 356.55 268.06 354.69 272.82 350.80 C 279.39 345.24 281.92 335.44 278.54 327.47 C 275.36 318.66 265.59 312.87 256.35 314.45 M 349.38 314.48 C 345.44 315.24 341.46 316.68 338.43 319.41 C 333.55 324.15 330.80 331.23 331.96 338.03 C 333.08 349.15 344.81 357.35 355.63 355.56 C 363.92 354.54 370.81 347.71 372.66 339.69 C 374.41 332.71 371.90 325.10 367.16 319.86 C 362.35 315.74 355.71 313.43 349.38 314.48 M 286.88 322.98 C 287.22 324.98 287.64 326.98 288.13 328.97 C 299.05 329.73 310.05 329.28 320.99 329.25 C 324.41 329.48 324.41 325.34 325.09 322.99 C 318.74 322.37 312.37 322.73 306.00 322.67 C 299.63 322.76 293.24 322.33 286.88 322.98 Z" />
</g>
<g id="#167ed8ff">
<path fill="#167ed8" opacity="1.00" d=" M 177.37 144.49 C 183.77 144.00 190.24 144.19 196.65 144.47 C 201.56 144.67 205.78 148.23 207.06 152.94 C 210.26 164.11 212.52 175.54 215.33 186.81 C 215.87 188.57 216.54 190.71 218.45 191.42 C 221.93 192.00 225.48 191.64 229.00 191.68 C 281.33 191.64 333.67 191.70 386.00 191.66 C 390.25 191.72 394.56 191.37 398.77 192.10 C 400.92 193.61 400.35 196.49 399.75 198.63 C 392.56 221.80 385.31 244.94 378.18 268.13 C 377.12 271.72 375.69 275.30 373.19 278.16 C 368.22 284.52 359.89 287.46 352.00 287.36 C 312.98 287.28 273.96 287.39 234.94 287.30 C 229.81 287.16 225.14 290.13 221.71 293.71 C 215.75 300.74 216.79 312.24 223.72 318.25 C 226.01 320.28 228.98 321.25 231.74 322.45 C 231.47 324.29 231.15 326.12 230.81 327.96 C 225.97 328.90 221.94 325.37 218.57 322.42 C 208.50 313.75 208.61 296.26 218.48 287.46 C 221.47 284.59 225.43 283.15 228.79 280.81 C 231.00 279.33 230.05 276.28 229.75 274.11 C 220.14 234.98 210.87 195.75 201.36 156.60 C 200.65 154.36 199.43 151.68 196.85 151.23 C 190.41 150.09 183.84 151.24 177.37 150.49 C 174.14 150.27 174.18 144.75 177.37 144.49 M 221.31 198.37 C 219.46 201.15 219.52 204.50 220.39 207.62 C 225.46 228.54 230.44 249.49 235.59 270.40 C 236.34 273.23 236.74 276.24 238.22 278.81 C 239.53 280.57 242.04 280.20 243.97 280.39 C 277.98 280.31 311.99 280.36 346.00 280.36 C 351.55 280.29 357.44 281.04 362.63 278.57 C 367.58 276.21 370.47 271.07 371.97 266.00 C 378.16 246.45 384.07 226.81 390.18 207.24 C 390.69 204.84 391.91 201.95 390.26 199.75 C 389.34 198.32 387.53 198.36 386.05 198.30 C 331.14 198.40 276.22 198.26 221.31 198.37 Z" />
</g>
<g id="#92dfe9ff">
<path fill="#92dfe9" opacity="1.00" d=" M 86.44 152.51 C 88.88 151.75 91.48 151.95 94.01 151.91 C 111.02 152.11 128.04 151.83 145.04 152.04 C 150.20 151.56 153.85 158.49 150.47 162.45 C 148.71 165.38 144.95 164.98 142.02 165.09 C 125.34 164.83 108.65 165.16 91.97 165.04 C 88.85 165.03 84.94 164.79 83.32 161.63 C 82.21 158.35 83.33 154.28 86.44 152.51 Z" />
</g>
<g id="#080616ff">
<path fill="#080616" opacity="1.00" d=" M 271.27 159.27 C 276.52 158.41 281.89 158.93 287.19 159.04 C 285.74 161.00 284.35 163.00 283.01 165.03 C 283.67 167.11 284.31 169.20 284.96 171.28 C 280.41 171.32 275.74 171.96 271.28 170.83 C 266.60 168.96 266.90 161.31 271.27 159.27 Z" />
</g>
<g id="#12113eff">
<path fill="#12113e" opacity="1.00" d=" M 287.19 159.04 C 292.19 158.66 297.21 158.78 302.21 159.10 C 300.05 160.79 297.41 162.44 296.50 165.16 C 296.84 167.54 298.76 169.32 300.00 171.30 C 294.98 171.44 289.97 171.54 284.96 171.28 C 284.31 169.20 283.67 167.11 283.01 165.03 C 284.35 163.00 285.74 161.00 287.19 159.04 Z" />
</g>
<g id="#1b1b65ff">
<path fill="#1b1b65" opacity="1.00" d=" M 302.21 159.10 C 307.52 158.49 312.88 158.93 318.20 159.12 C 315.74 160.20 312.84 161.12 311.31 163.48 C 309.88 166.71 313.36 169.03 315.09 171.26 C 310.06 171.42 305.02 171.54 300.00 171.30 C 298.76 169.32 296.84 167.54 296.50 165.16 C 297.41 162.44 300.05 160.79 302.21 159.10 Z" />
</g>
<g id="#26238aff">
<path fill="#26238a" opacity="1.00" d=" M 318.20 159.12 C 324.06 158.58 330.00 158.71 335.87 159.13 C 336.20 159.37 336.86 159.86 337.19 160.10 C 332.20 160.08 326.86 160.54 323.00 164.08 C 324.13 166.58 325.44 168.99 326.91 171.31 C 322.97 171.45 319.02 171.49 315.09 171.26 C 313.36 169.03 309.88 166.71 311.31 163.48 C 312.84 161.12 315.74 160.20 318.20 159.12 Z" />
</g>
<g id="#0a0b24ff">
<path fill="#0a0b24" opacity="1.00" d=" M 355.24 159.19 C 359.75 158.42 364.36 158.98 368.91 158.91 C 367.90 160.55 366.31 162.02 366.03 163.99 C 366.38 165.77 367.13 167.43 367.78 169.12 C 363.57 169.08 359.32 169.54 355.15 168.87 C 351.10 167.43 350.89 160.45 355.24 159.19 Z" />
</g>
<g id="#1c1b60ff">
<path fill="#1c1b60" opacity="1.00" d=" M 368.91 158.91 C 373.31 158.78 377.71 158.83 382.11 159.01 C 380.06 160.49 378.31 162.31 376.61 164.16 C 377.87 165.97 379.32 167.64 380.94 169.14 C 376.55 169.12 372.17 169.27 367.78 169.12 C 367.13 167.43 366.38 165.77 366.03 163.99 C 366.31 162.02 367.90 160.55 368.91 158.91 Z" />
</g>
<g id="#2d2b9bff">
<path fill="#2d2b9b" opacity="1.00" d=" M 382.11 159.01 C 385.02 158.72 388.34 158.42 390.92 160.08 C 392.38 162.32 392.52 165.74 390.90 167.91 C 388.05 169.97 384.22 169.00 380.94 169.14 C 379.32 167.64 377.87 165.97 376.61 164.16 C 378.31 162.31 380.06 160.49 382.11 159.01 Z" />
</g>
<g id="#312dadff">
<path fill="#312dad" opacity="1.00" d=" M 323.00 164.08 C 326.86 160.54 332.20 160.08 337.19 160.10 C 337.61 160.10 338.44 160.10 338.86 160.10 C 340.13 162.88 341.13 166.53 339.19 169.22 C 336.01 172.51 330.98 171.22 326.91 171.31 C 325.44 168.99 324.13 166.58 323.00 164.08 Z" />
</g>
<g id="#0b204fff">
<path fill="#0b204f" opacity="1.00" d=" M 165.34 164.16 C 168.67 163.28 172.55 165.61 172.70 169.21 C 173.48 174.15 166.47 177.39 162.97 174.03 C 159.70 171.23 161.07 165.14 165.34 164.16 M 168.50 166.13 C 167.77 167.33 169.59 169.18 170.78 168.39 C 171.56 167.17 169.70 165.27 168.50 166.13 Z" />
</g>
<g id="#9db6d7ff">
<path fill="#9db6d7" opacity="1.00" d=" M 168.50 166.13 C 169.70 165.27 171.56 167.17 170.78 168.39 C 169.59 169.18 167.77 167.33 168.50 166.13 Z" />
</g>
<g id="#95dfe9ff">
<path fill="#95dfe9" opacity="1.00" d=" M 125.37 174.40 C 132.55 173.58 138.32 182.56 134.78 188.77 C 132.40 193.92 125.34 196.77 120.32 193.70 C 114.49 190.71 113.29 181.57 118.06 177.12 C 119.93 175.14 122.76 174.57 125.37 174.40 Z" />
</g>
<g id="#071f52ff">
<path fill="#071f52" opacity="1.00" d=" M 151.27 184.11 C 162.46 183.15 173.76 184.03 185.00 183.67 C 187.80 183.96 191.57 182.92 193.43 185.66 C 195.29 188.27 193.31 192.41 189.97 192.27 C 179.99 192.70 169.99 192.24 160.00 192.45 C 156.83 192.36 153.49 192.81 150.47 191.63 C 147.84 189.90 148.29 185.29 151.27 184.11 Z" />
</g>
<g id="#9bdde6ff">
<path fill="#9bdde6" opacity="1.00" d=" M 87.37 185.42 C 90.99 184.70 94.95 188.16 94.16 191.95 C 93.81 197.08 86.09 198.80 83.41 194.52 C 81.06 191.15 83.40 186.12 87.37 185.42 Z" />
</g>
<g id="#052055ff">
<path fill="#052055" opacity="1.00" d=" M 221.31 198.37 C 276.22 198.26 331.14 198.40 386.05 198.30 C 387.53 198.36 389.34 198.32 390.26 199.75 C 391.91 201.95 390.69 204.84 390.18 207.24 C 384.07 226.81 378.16 246.45 371.97 266.00 C 370.47 271.07 367.58 276.21 362.63 278.57 C 357.44 281.04 351.55 280.29 346.00 280.36 C 311.99 280.36 277.98 280.31 243.97 280.39 C 242.04 280.20 239.53 280.57 238.22 278.81 C 236.74 276.24 236.34 273.23 235.59 270.40 C 230.44 249.49 225.46 228.54 220.39 207.62 C 219.52 204.50 219.46 201.15 221.31 198.37 M 229.32 207.07 C 230.57 212.11 231.71 217.18 233.09 222.19 C 243.63 222.54 254.21 222.66 264.75 222.15 C 264.80 217.14 264.81 212.14 264.76 207.14 C 252.95 206.87 241.13 207.00 229.32 207.07 M 273.83 207.09 C 273.51 212.13 273.54 217.18 273.83 222.23 C 282.53 222.56 291.26 222.56 299.96 222.24 C 300.21 217.19 300.25 212.13 300.01 207.08 C 291.29 206.95 282.56 206.93 273.83 207.09 M 309.07 207.06 C 308.93 212.26 308.87 217.47 309.22 222.67 C 317.80 222.52 326.38 222.58 334.97 222.63 C 335.77 217.48 335.44 212.25 335.21 207.07 C 326.50 206.95 317.78 206.95 309.07 207.06 M 344.28 207.18 C 344.29 212.33 344.26 217.48 344.34 222.63 C 354.98 222.41 365.64 222.89 376.28 222.39 C 377.83 217.30 379.49 212.25 380.92 207.13 C 368.71 206.95 356.49 206.84 344.28 207.18 M 235.23 231.29 C 236.39 236.52 237.62 241.74 239.07 246.90 C 247.64 247.06 256.21 247.11 264.77 246.85 C 264.79 241.67 264.80 236.48 264.71 231.30 C 254.88 231.26 245.05 231.27 235.23 231.29 M 273.97 231.28 C 273.36 236.47 273.59 241.71 273.83 246.91 C 282.53 247.05 291.24 247.08 299.95 246.90 C 300.23 241.69 300.28 236.47 299.90 231.27 C 291.25 231.27 282.61 231.27 273.97 231.28 M 309.15 231.26 C 308.90 236.48 308.93 241.71 309.07 246.93 C 317.79 247.05 326.50 247.04 335.22 246.93 C 335.44 241.72 335.74 236.47 335.06 231.28 C 326.42 231.26 317.79 231.29 309.15 231.26 M 344.32 231.31 C 344.27 236.49 344.28 241.67 344.28 246.85 C 352.43 247.06 360.59 247.20 368.73 246.78 C 370.28 241.65 372.23 236.62 373.10 231.31 C 363.51 231.25 353.91 231.27 344.32 231.31 M 241.25 255.90 C 242.36 261.21 243.46 266.54 245.15 271.71 C 251.67 271.75 258.19 271.74 264.71 271.71 C 264.79 266.46 264.80 261.22 264.74 255.98 C 256.92 255.48 249.07 255.62 241.25 255.90 M 273.84 255.89 C 273.54 261.16 273.40 266.46 273.94 271.72 C 282.59 271.74 291.25 271.70 299.91 271.74 C 300.28 266.47 300.25 261.17 300.00 255.89 C 291.29 255.57 282.55 255.59 273.84 255.89 M 309.09 255.88 C 308.92 261.17 308.90 266.46 309.15 271.75 C 317.80 271.69 326.45 271.74 335.10 271.72 C 335.67 266.46 335.48 261.15 335.21 255.88 C 326.51 255.59 317.79 255.59 309.09 255.88 M 344.30 256.03 C 344.29 261.25 344.27 266.47 344.31 271.69 C 349.65 271.48 355.88 272.96 360.43 269.43 C 363.87 265.80 364.37 260.47 365.80 255.88 C 358.64 255.67 351.45 255.42 344.30 256.03 Z" />
</g>
<g id="#062052ff">
<path fill="#062052" opacity="1.00" d=" M 128.32 207.25 C 130.82 206.58 133.44 206.71 136.00 206.68 C 146.34 206.76 156.68 206.71 167.02 206.69 C 169.45 206.90 173.04 206.30 173.92 209.32 C 175.34 212.21 173.11 215.85 169.82 215.61 C 158.22 215.93 146.59 215.55 134.97 215.77 C 132.67 215.66 130.17 216.03 128.06 214.92 C 125.39 213.20 125.66 208.85 128.32 207.25 Z" />
</g>
<g id="#f4f4f5ff">
</g>
<g id="#f3f4f6ff">
</g>
<g id="#f3f4f8ff">
</g>
<g id="#f3f4f4ff">
</g>
<g id="#92e0e9ff">
<path fill="#92e0e9" opacity="1.00" d=" M 83.31 211.34 C 87.31 210.37 91.98 211.01 95.07 213.91 C 97.75 216.70 99.08 220.94 97.79 224.69 C 96.06 231.88 86.56 235.44 80.40 231.54 C 77.45 229.25 75.67 225.55 75.37 221.87 C 75.36 217.20 78.78 212.57 83.31 211.34 Z" />
</g>
<g id="#93e0e9ff">
<path fill="#93e0e9" opacity="1.00" d=" M 113.35 213.41 C 116.79 212.37 120.87 212.87 123.57 215.39 C 128.19 219.59 127.85 228.05 122.59 231.60 C 117.83 234.42 110.19 233.96 107.69 228.35 C 104.47 222.98 107.21 215.12 113.35 213.41 Z" />
</g>
<g id="#072051ff">
<path fill="#072051" opacity="1.00" d=" M 147.38 230.42 C 150.20 229.76 153.13 230.00 156.01 229.96 C 170.34 230.15 184.68 229.78 199.00 230.12 C 202.89 230.07 204.18 236.04 201.10 238.06 C 199.30 239.17 197.06 238.92 195.04 239.04 C 180.67 238.97 166.30 239.01 151.93 239.02 C 149.63 238.90 146.54 239.03 145.32 236.61 C 144.44 234.53 144.89 231.11 147.38 230.42 Z" />
</g>
<g id="#f4f4f6ff">
</g>
<g id="#08bb64ff">
<path fill="#08bb64" opacity="1.00" d=" M 90.47 247.58 C 93.89 246.83 97.73 247.43 100.57 249.53 C 104.83 253.10 105.60 260.42 101.31 264.30 C 97.46 268.74 89.38 269.26 85.78 264.25 C 81.30 258.91 83.68 249.65 90.47 247.58 M 94.97 249.83 C 96.31 252.52 98.58 254.52 101.15 255.99 C 101.71 252.25 98.62 249.43 94.97 249.83 Z" />
</g>
<g id="#72f4c1ff">
<path fill="#72f4c1" opacity="1.00" d=" M 94.97 249.83 C 98.62 249.43 101.71 252.25 101.15 255.99 C 98.58 254.52 96.31 252.52 94.97 249.83 Z" />
</g>
<g id="#0aba65ff">
<path fill="#0aba65" opacity="1.00" d=" M 127.15 252.14 C 128.92 249.68 132.31 250.03 134.98 249.85 C 145.98 249.85 156.99 249.81 168.00 249.84 C 170.44 249.93 172.96 249.88 175.30 250.71 C 178.62 253.17 178.04 259.52 173.88 260.83 C 159.57 260.80 145.25 260.66 130.94 260.92 C 126.92 260.53 124.71 255.30 127.15 252.14 Z" />
</g>
<g id="#f4f4f7ff">
</g>
<g id="#c4ffe3ff">
<path fill="#c4ffe3" opacity="1.00" d=" M 130.94 260.92 C 145.25 260.66 159.57 260.80 173.88 260.83 C 172.31 262.63 169.78 262.42 167.62 262.42 C 156.73 261.82 145.83 262.30 134.94 262.09 C 133.51 262.09 132.09 261.81 130.94 260.92 Z" />
</g>
<g id="#0bb866ff">
<path fill="#0bb866" opacity="1.00" d=" M 122.43 270.41 C 126.67 268.03 133.09 270.84 133.13 276.03 C 133.87 280.89 128.48 284.54 124.04 283.27 C 118.25 282.12 116.86 272.88 122.43 270.41 M 126.85 271.00 C 127.59 273.07 129.13 274.56 131.20 275.30 C 131.06 272.78 129.15 271.44 126.85 271.00 Z" />
</g>
<g id="#66edb4ff">
<path fill="#66edb4" opacity="1.00" d=" M 126.85 271.00 C 129.15 271.44 131.06 272.78 131.20 275.30 C 129.13 274.56 127.59 273.07 126.85 271.00 Z" />
</g>
<g id="#bcffdeff">
<path fill="#bcffde" opacity="1.00" d=" M 154.87 273.91 C 156.74 272.89 158.86 272.75 160.95 272.84 C 170.65 273.07 180.35 272.93 190.05 272.94 C 191.77 273.01 193.65 272.82 195.12 273.92 C 181.71 274.05 168.29 274.04 154.87 273.91 Z" />
</g>
<g id="#0ab866ff">
<path fill="#0ab866" opacity="1.00" d=" M 154.54 282.93 C 150.98 281.21 151.17 275.34 154.87 273.91 C 168.29 274.04 181.71 274.05 195.12 273.92 C 197.38 276.67 198.01 281.45 194.12 283.11 C 180.93 282.83 167.73 283.04 154.54 282.93 Z" />
</g>
<g id="#b7fee1ff">
<path fill="#b7fee1" opacity="1.00" d=" M 154.54 282.93 C 167.73 283.04 180.93 282.83 194.12 283.11 C 190.66 284.80 186.70 284.00 182.99 284.15 C 173.30 283.86 163.54 284.72 153.88 283.58 L 154.54 282.93 Z" />
</g>
<g id="#43ad80ff">
<path fill="#43ad80" opacity="1.00" d=" M 95.88 285.79 C 102.60 282.67 111.55 286.14 114.17 293.15 C 112.95 293.68 111.75 294.24 110.51 294.74 C 109.61 291.72 107.76 289.13 105.25 287.25 C 102.35 285.79 99.04 285.78 95.88 285.79 Z" />
</g>
<g id="#04bd63ff">
<path fill="#04bd63" opacity="1.00" d=" M 88.45 292.43 C 89.85 289.27 92.79 287.13 95.88 285.79 C 99.04 285.78 102.35 285.79 105.25 287.25 C 104.67 287.73 103.51 288.70 102.93 289.18 C 105.15 291.25 106.94 295.35 110.51 294.74 C 111.75 294.24 112.95 293.68 114.17 293.15 C 114.94 297.02 115.38 301.48 112.89 304.85 C 108.77 311.23 99.10 313.67 92.78 309.22 C 87.97 305.35 85.75 298.14 88.45 292.43 Z" />
</g>
<g id="#93fcd9ff">
<path fill="#93fcd9" opacity="1.00" d=" M 102.93 289.18 C 103.51 288.70 104.67 287.73 105.25 287.25 C 107.76 289.13 109.61 291.72 110.51 294.74 C 106.94 295.35 105.15 291.25 102.93 289.18 Z" />
</g>
<g id="#20ac67ff">
<path fill="#20ac67" opacity="1.00" d=" M 128.45 297.40 C 130.46 296.40 132.82 296.69 134.99 296.58 C 147.34 296.76 159.71 296.47 172.05 296.70 C 178.23 296.26 179.25 305.92 174.26 308.20 C 171.90 308.85 169.42 308.61 167.01 308.65 C 155.07 308.45 143.13 308.79 131.20 308.52 C 125.86 308.23 124.69 300.51 128.45 297.40 M 129.69 299.71 C 127.93 300.75 128.10 302.91 128.06 304.67 C 130.45 305.62 132.95 306.40 135.56 306.35 C 143.87 306.19 152.14 307.60 160.44 306.55 C 165.64 306.24 173.35 308.13 175.97 302.17 C 174.02 300.46 171.75 298.91 169.02 299.08 C 158.68 298.86 148.34 299.00 138.00 298.94 C 135.23 299.02 132.36 298.83 129.69 299.71 Z" />
</g>
<g id="#050403ff">
<path fill="#050403" opacity="1.00" d=" M 378.12 299.96 C 379.26 299.26 380.42 298.58 381.60 297.93 C 391.52 312.84 401.60 327.63 411.50 342.54 C 413.44 344.51 410.78 345.58 409.20 346.23 C 398.80 330.84 388.43 315.42 378.12 299.96 Z" />
</g>
<g id="#04bd62ff">
<path fill="#04bd62" opacity="1.00" d=" M 129.69 299.71 C 132.36 298.83 135.23 299.02 138.00 298.94 C 148.34 299.00 158.68 298.86 169.02 299.08 C 171.75 298.91 174.02 300.46 175.97 302.17 C 173.35 308.13 165.64 306.24 160.44 306.55 C 152.14 307.60 143.87 306.19 135.56 306.35 C 132.95 306.40 130.45 305.62 128.06 304.67 C 128.10 302.91 127.93 300.75 129.69 299.71 Z" />
</g>
<g id="#197dd4ff">
<path fill="#197dd4" opacity="1.00" d=" M 256.35 314.45 C 265.59 312.87 275.36 318.66 278.54 327.47 C 281.92 335.44 279.39 345.24 272.82 350.80 C 268.06 354.69 261.61 356.55 255.53 355.45 C 247.56 354.19 240.60 347.75 239.04 339.78 C 237.80 334.35 238.52 328.36 241.71 323.71 C 244.83 318.55 250.47 315.32 256.35 314.45 M 256.46 320.59 C 249.84 321.99 244.55 328.14 244.70 335.00 C 244.43 342.68 251.25 349.73 258.99 349.45 C 267.50 349.99 275.03 341.59 273.67 333.21 C 272.90 325.17 264.37 318.80 256.46 320.59 Z" />
</g>
<g id="#197dd6ff">
<path fill="#197dd6" opacity="1.00" d=" M 349.38 314.48 C 355.71 313.43 362.35 315.74 367.16 319.86 C 371.90 325.10 374.41 332.71 372.66 339.69 C 370.81 347.71 363.92 354.54 355.63 355.56 C 344.81 357.35 333.08 349.15 331.96 338.03 C 330.80 331.23 333.55 324.15 338.43 319.41 C 341.46 316.68 345.44 315.24 349.38 314.48 M 349.44 320.60 C 347.32 321.19 345.34 322.24 343.57 323.53 C 337.21 327.94 336.16 338.09 341.11 343.90 C 345.54 349.97 354.90 351.29 360.92 346.89 C 366.84 343.08 368.58 334.63 365.49 328.48 C 362.85 322.56 355.68 319.22 349.44 320.60 Z" />
</g>
<g id="#04215aff">
<path fill="#04215a" opacity="1.00" d=" M 256.46 320.59 C 264.37 318.80 272.90 325.17 273.67 333.21 C 275.03 341.59 267.50 349.99 258.99 349.45 C 251.25 349.73 244.43 342.68 244.70 335.00 C 244.55 328.14 249.84 321.99 256.46 320.59 M 257.36 329.35 C 252.13 330.65 252.32 339.24 257.41 340.56 C 261.03 341.76 265.22 338.84 264.99 334.94 C 265.39 331.01 260.96 327.86 257.36 329.35 Z" />
<path fill="#04215a" opacity="1.00" d=" M 349.44 320.60 C 355.68 319.22 362.85 322.56 365.49 328.48 C 368.58 334.63 366.84 343.08 360.92 346.89 C 354.90 351.29 345.54 349.97 341.11 343.90 C 336.16 338.09 337.21 327.94 343.57 323.53 C 345.34 322.24 347.32 321.19 349.44 320.60 M 350.41 329.40 C 345.96 330.79 345.49 337.33 349.15 339.83 C 352.45 342.21 357.80 340.13 358.19 335.94 C 359.22 331.66 354.42 327.63 350.41 329.40 Z" />
</g>
<g id="#197dd8ff">
<path fill="#197dd8" opacity="1.00" d=" M 286.88 322.98 C 293.24 322.33 299.63 322.76 306.00 322.67 C 312.37 322.73 318.74 322.37 325.09 322.99 C 324.41 325.34 324.41 329.48 320.99 329.25 C 310.05 329.28 299.05 329.73 288.13 328.97 C 287.64 326.98 287.22 324.98 286.88 322.98 Z" />
</g>
<g id="#f1f4f9ff">
</g>
<g id="#f1f4f7ff">
</g>
<g id="#092052ff">
<path fill="#092052" opacity="1.00" d=" M 413.29 347.14 C 417.17 345.40 422.01 348.65 421.45 352.98 C 421.39 357.58 415.25 359.99 411.81 357.26 C 408.41 354.66 409.04 348.53 413.29 347.14 M 416.59 348.31 C 416.03 349.71 418.19 351.53 419.51 350.79 C 420.10 349.35 417.91 347.62 416.59 348.31 Z" />
</g>
<g id="#87a1c5ff">
<path fill="#87a1c5" opacity="1.00" d=" M 416.59 348.31 C 417.91 347.62 420.10 349.35 419.51 350.79 C 418.19 351.53 416.03 349.71 416.59 348.31 Z" />
</g>
<g id="#072052ff">
<path fill="#072052" opacity="1.00" d=" M 287.40 356.37 C 292.51 355.07 297.80 355.72 303.00 355.62 C 307.99 355.71 313.00 355.36 317.99 355.72 C 322.24 355.44 322.97 362.05 319.74 363.87 C 314.89 364.85 309.90 364.20 305.00 364.33 C 299.17 364.14 293.23 365.02 287.52 363.50 C 286.89 361.15 286.89 358.73 287.40 356.37 Z" />
</g>
</svg>
